<svg width="25.612061" height="22.016479" viewBox="0 0 25.6121 22.0165" fill="none" xmlns="http://www.w3.org/2000/svg" xmlns:xlink="http://www.w3.org/1999/xlink">
	<desc>
			Created with Pixso.
	</desc>
	<defs/>
	<path id="Subtract" d="M5.01898 4.40015C6.16278 1.99036 7.41956 0.544617 10.9274 0.0678101C13.4309 -0.272522 15.5954 0.679993 17.3419 2.65924C17.4504 2.63824 17.5593 2.6203 17.6716 2.60504C21.4798 2.0874 25.0039 4.88019 25.5425 8.84271C26.0812 12.8052 23.4305 16.4374 19.6222 16.9551C19.5897 16.9595 19.5568 16.9608 19.5213 16.9656L9.76428 18.292C9.85596 18.5457 10.7247 20.344 12.7936 22.0165C4.59705 21.1122 1.57843 16.7653 0.602844 14.2366C0.346619 13.6359 0.162231 12.9878 0.069458 12.3054C-0.421936 8.69019 1.74225 5.35272 5.01898 4.40015ZM13.0261 7.04608C12.8454 6.3515 12.1392 5.94196 11.2968 6.16113C10.4543 6.38025 10.0372 7.08203 9.97314 7.98859L7.72449 8.27692C7.64191 6.51862 8.68463 4.76422 10.7908 4.21631C12.8268 3.68671 14.7689 4.81299 15.1664 6.34106C15.541 7.78143 14.8613 8.51764 14.2124 9.22064C13.7035 9.77191 13.2134 10.3027 13.2656 11.1366L11.4402 11.6115C11.059 10.1458 11.7519 9.34137 12.3473 8.65015C12.7959 8.12933 13.1891 7.67279 13.0261 7.04608ZM13.2202 14.708C12.5884 14.8723 11.9705 14.514 11.8078 13.8889C11.6452 13.2637 12.0102 12.6497 12.642 12.4854C13.2739 12.321 13.8918 12.6793 14.0544 13.3044C14.217 13.9296 13.8521 14.5436 13.2202 14.708Z" clip-rule="evenodd" fill="#FFA31A" fill-opacity="1.000000" fill-rule="evenodd"/>
</svg>
